<?xml version="1.0" standalone="no"?>
<!DOCTYPE svg PUBLIC "-//W3C//DTD SVG 20010904//EN"
 "http://www.w3.org/TR/2001/REC-SVG-20010904/DTD/svg10.dtd">
<svg version="1.0" xmlns="http://www.w3.org/2000/svg"
 width="325.000000pt" height="325.000000pt" viewBox="0 0 325.000000 325.000000"
 preserveAspectRatio="xMidYMid meet">
<metadata>
Created by potrace 1.14, written by Peter Selinger 2001-2017
</metadata>
<g transform="translate(0.000000,325.000000) scale(0.100000,-0.100000)"
fill="#000000" stroke="none">
<path d="M1577 2864 c-1 -1 -47 -4 -102 -7 -168 -11 -419 -64 -557 -118 -413
-162 -701 -433 -808 -759 -17 -51 -21 -68 -35 -140 -6 -30 -7 -215 -1 -250 12
-70 18 -95 44 -168 16 -44 48 -114 73 -157 42 -75 155 -216 209 -261 14 -12
37 -32 51 -45 100 -90 277 -197 419 -252 178 -69 285 -97 510 -133 25 -4 147
-8 272 -8 l227 -1 33 -27 c18 -15 37 -28 42 -28 5 0 17 -6 25 -14 19 -17 152
-63 207 -72 22 -3 42 -8 45 -9 23 -15 419 -28 419 -14 0 4 -24 15 -52 25 -99
32 -209 97 -270 158 -32 32 -57 63 -56 68 2 5 28 18 58 29 106 37 316 149 402
214 259 195 419 438 455 690 8 58 8 202 0 260 -10 66 -45 175 -82 254 -71 149
-203 303 -360 420 -75 57 -207 141 -220 141 -1 0 -41 17 -87 39 -211 97 -492
160 -738 165 -66 1 -121 1 -123 0z"/>
</g>
</svg>
